<svg width="20" height="20" viewBox="0 0 20 20" fill="none" xmlns="http://www.w3.org/2000/svg">
<path d="M5 11.4286H0.714286C0.319797 11.4286 0 11.7484 0 12.1429V19.2857C0 19.6802 0.319797 20 0.714286 20H5C5.39449 20 5.71429 19.6802 5.71429 19.2857V12.1429C5.71429 11.7484 5.39449 11.4286 5 11.4286Z" fill="#C8C8C8"/>
<path d="M19.2856 5.71423H14.9999C14.6054 5.71423 14.2856 6.03403 14.2856 6.42852V19.2857C14.2856 19.6802 14.6054 19.9999 14.9999 19.9999H19.2856C19.6801 19.9999 19.9999 19.6802 19.9999 19.2857V6.42852C19.9999 6.03403 19.6801 5.71423 19.2856 5.71423Z" fill="#C8C8C8"/>
<path d="M12.1431 0H7.85735C7.46286 0 7.14307 0.319797 7.14307 0.714286V19.2857C7.14307 19.6802 7.46286 20 7.85735 20H12.1431C12.5376 20 12.8574 19.6802 12.8574 19.2857V0.714286C12.8574 0.319797 12.5376 0 12.1431 0Z" fill="#C8C8C8"/>
</svg>
