<svg width="21" height="20" viewBox="0 0 21 20" fill="none" xmlns="http://www.w3.org/2000/svg">
<path d="M20.7388 10C20.7388 15.5143 16.2531 20 10.7388 20C6.65877 20 3.02449 17.56 1.47949 13.7843C1.3302 13.4186 1.5052 13.0014 1.8702 12.8521C2.23449 12.7036 2.65234 12.8786 2.80163 13.2429C4.12591 16.48 7.24091 18.5714 10.7381 18.5714C15.4645 18.5714 19.3095 14.7264 19.3095 10C19.3095 5.27357 15.4645 1.42857 10.7381 1.42857C7.23449 1.42857 4.13163 3.52929 2.8152 6.72214L3.1652 6.40143C3.45591 6.135 3.90806 6.155 4.17448 6.44571C4.44091 6.73643 4.42163 7.18857 4.1302 7.455L2.23163 9.19571C2.09877 9.31714 1.92591 9.38357 1.74877 9.38357C1.70663 9.38357 1.6652 9.38 1.62306 9.37214C1.40377 9.33286 1.2152 9.19429 1.11377 8.99643L0.079485 6.98786C-0.101229 6.63714 0.0366279 6.20643 0.387342 6.02571C0.738771 5.84214 1.16877 5.98214 1.34948 6.33357L1.4002 6.43214C2.8752 2.56643 6.5602 0 10.7388 0C16.2531 0 20.7388 4.48571 20.7388 10ZM4.2952 9.94214C4.2952 6.39143 7.17306 3.51357 10.7238 3.51357C14.2745 3.51357 17.1523 6.39143 17.1523 9.94214C17.1523 13.4929 14.2745 16.3707 10.7238 16.3707C7.17306 16.3707 4.2952 13.4929 4.2952 9.94214ZM10.0095 9.94214C10.0095 10.1664 10.1152 10.3786 10.2952 10.5136L13.1523 12.6564C13.2809 12.7529 13.4316 12.7993 13.5802 12.7993C13.7973 12.7993 14.0116 12.7007 14.1523 12.5136C14.3895 12.1986 14.3252 11.7507 14.0095 11.5143L11.4381 9.58571V6.37143C11.4381 5.97643 11.1181 5.65714 10.7238 5.65714C10.3295 5.65714 10.0095 5.97643 10.0095 6.37143V9.94214Z" fill="#C8C8C8"/>
</svg>
